<svg xmlns="http://www.w3.org/2000/svg" xmlns:xlink="http://www.w3.org/1999/xlink" width="66.146" height="16.285" viewBox="0 0 66.146 16.285">
  <defs>
    <clipPath id="clip-path">
      <rect id="Rectangle_2367" data-name="Rectangle 2367" width="58" height="13" rx="5" transform="translate(0)" fill="#6a452b" stroke="#707070" stroke-width="2"/>
    </clipPath>
  </defs>
  <g id="Arrow" transform="translate(1.26)">
    <g id="Slider" transform="translate(3 0)" clip-path="url(#clip-path)">
      <path id="Ellipse_203" data-name="Ellipse 203" d="M138.841,2a137.863,137.863,0,0,0-27.58,2.78A136.079,136.079,0,0,0,62.333,25.369a137.247,137.247,0,0,0-49.58,60.208A136.139,136.139,0,0,0,4.78,111.26a138.194,138.194,0,0,0,0,55.161,136.079,136.079,0,0,0,20.589,48.927,137.247,137.247,0,0,0,60.208,49.58A136.139,136.139,0,0,0,111.26,272.9a138.194,138.194,0,0,0,55.161,0,136.079,136.079,0,0,0,48.927-20.589,137.247,137.247,0,0,0,49.58-60.208,136.139,136.139,0,0,0,7.973-25.684,138.194,138.194,0,0,0,0-55.161,136.079,136.079,0,0,0-20.589-48.927A137.247,137.247,0,0,0,192.1,12.753,136.139,136.139,0,0,0,166.421,4.78,137.863,137.863,0,0,0,138.841,2m0-2A138.841,138.841,0,1,1,0,138.841,138.841,138.841,0,0,1,138.841,0Z" transform="translate(-112 5)" fill="#7b5133"/>
    </g>
    <path id="Path_4773" data-name="Path 4773" d="M5.1,13a1,1,0,0,1-.759-.349L-.759,6.71a1,1,0,0,1,0-1.3L4.46-.653A1,1,0,0,1,5.87-.758,1,1,0,0,1,5.975.653L1.319,6.06l4.54,5.289A1,1,0,0,1,5.1,13Z" transform="matrix(0.951, -0.309, 0.309, 0.951, 0, 3.612)" fill="#6a452b"/>
    <path id="Path_4774" data-name="Path 4774" d="M5.219,13a1,1,0,0,1-.758-.347L-.758,6.595a1,1,0,0,1,0-1.3l5.1-5.942a1,1,0,0,1,1.41-.108A1,1,0,0,1,5.859.651l-4.54,5.29,4.657,5.406A1,1,0,0,1,5.219,13Z" transform="matrix(-0.951, -0.309, 0.309, -0.951, 59.918, 14.725)" fill="#6a452b"/>
  </g>
</svg>
